# xmcd CD database file
#
# Track frame offsets:
#	150
#	11691
#	23084
#	34201
#	46870
#	60051
#	70860
#	82240
#	92636
#	106418
#
# Disc length: 1562 seconds
#
# Revision: 0
# Processed by: cddbd v1.5.2PL0 Copyright (c) Steve Scherf et al.
# Submitted via: CDex 1.51
#
DISCID=7406180a
DTITLE=Patsy Cline - That's How Much I Love You
DYEAR=2002
DGENRE=Country
TTITLE0=Loved and Lost Again
TTITLE1=Cry Not For Me
TTITLE2=I Can't Forget You
TTITLE3=Fingerprints
TTITLE4=If I could See The World
TTITLE5=That's How Much I Love You
TTITLE6=Just Out Of Reach
TTITLE7=Too Many Secrets
TTITLE8=A Church, A Courtroom and Goodbye
TTITLE9=There He Goes
EXTD=
EXTT0=
EXTT1=
EXTT2=
EXTT3=
EXTT4=
EXTT5=
EXTT6=
EXTT7=
EXTT8=
EXTT9=
PLAYORDER=
